<mxfile host="app.diagrams.net" agent="Mozilla/5.0 (Windows NT 10.0; Win64; x64) AppleWebKit/537.36 (KHTML, like Gecko) Chrome/128.0.0.0 Safari/537.36" version="24.7.16">
  <diagram name="Trang-1" id="r4S0BJlCzPg8Tl_Sf5Dy">
    <mxGraphModel dx="2261" dy="1949" grid="1" gridSize="10" guides="1" tooltips="1" connect="1" arrows="1" fold="1" page="1" pageScale="1" pageWidth="827" pageHeight="1169" math="0" shadow="0">
      <root>
        <mxCell id="0" />
        <mxCell id="1" parent="0" />
        <mxCell id="e0vE-16HeLjSwjVlVm8m-3" value="" style="edgeStyle=orthogonalEdgeStyle;rounded=0;orthogonalLoop=1;jettySize=auto;html=1;" edge="1" parent="1" source="0P6CS62Diz9UizNEsCj9-1" target="e0vE-16HeLjSwjVlVm8m-2">
          <mxGeometry relative="1" as="geometry" />
        </mxCell>
        <mxCell id="0P6CS62Diz9UizNEsCj9-1" value="Login" style="whiteSpace=wrap;html=1;aspect=fixed;" parent="1" vertex="1">
          <mxGeometry x="-350" y="-30" width="110" height="110" as="geometry" />
        </mxCell>
        <mxCell id="0P6CS62Diz9UizNEsCj9-11" value="" style="edgeStyle=orthogonalEdgeStyle;rounded=0;orthogonalLoop=1;jettySize=auto;html=1;" parent="1" source="0P6CS62Diz9UizNEsCj9-2" target="0P6CS62Diz9UizNEsCj9-10" edge="1">
          <mxGeometry relative="1" as="geometry">
            <Array as="points">
              <mxPoint x="220" y="-240" />
              <mxPoint x="220" y="-240" />
            </Array>
          </mxGeometry>
        </mxCell>
        <mxCell id="0P6CS62Diz9UizNEsCj9-2" value="Product list" style="whiteSpace=wrap;html=1;aspect=fixed;" parent="1" vertex="1">
          <mxGeometry x="-50" y="-280" width="115" height="115" as="geometry" />
        </mxCell>
        <mxCell id="0P6CS62Diz9UizNEsCj9-8" value="" style="edgeStyle=orthogonalEdgeStyle;rounded=0;orthogonalLoop=1;jettySize=auto;html=1;" parent="1" source="0P6CS62Diz9UizNEsCj9-4" target="0P6CS62Diz9UizNEsCj9-5" edge="1">
          <mxGeometry relative="1" as="geometry" />
        </mxCell>
        <mxCell id="0P6CS62Diz9UizNEsCj9-4" value="select row" style="rhombus;whiteSpace=wrap;html=1;" parent="1" vertex="1">
          <mxGeometry x="230" y="-230" width="80" height="80" as="geometry" />
        </mxCell>
        <mxCell id="0P6CS62Diz9UizNEsCj9-5" value="Detail product" style="whiteSpace=wrap;html=1;aspect=fixed;" parent="1" vertex="1">
          <mxGeometry x="230" y="-85" width="80" height="80" as="geometry" />
        </mxCell>
        <mxCell id="0P6CS62Diz9UizNEsCj9-17" value="" style="edgeStyle=orthogonalEdgeStyle;rounded=0;orthogonalLoop=1;jettySize=auto;html=1;" parent="1" source="0P6CS62Diz9UizNEsCj9-10" target="0P6CS62Diz9UizNEsCj9-16" edge="1">
          <mxGeometry relative="1" as="geometry">
            <Array as="points">
              <mxPoint x="431" y="-180" />
              <mxPoint x="431" y="-180" />
            </Array>
          </mxGeometry>
        </mxCell>
        <mxCell id="0P6CS62Diz9UizNEsCj9-10" value="create" style="rhombus;whiteSpace=wrap;html=1;" parent="1" vertex="1">
          <mxGeometry x="390" y="-280" width="80" height="80" as="geometry" />
        </mxCell>
        <mxCell id="0P6CS62Diz9UizNEsCj9-20" value="" style="edgeStyle=orthogonalEdgeStyle;rounded=0;orthogonalLoop=1;jettySize=auto;html=1;" parent="1" source="0P6CS62Diz9UizNEsCj9-16" target="0P6CS62Diz9UizNEsCj9-19" edge="1">
          <mxGeometry relative="1" as="geometry" />
        </mxCell>
        <mxCell id="0P6CS62Diz9UizNEsCj9-16" value="Create product" style="whiteSpace=wrap;html=1;" parent="1" vertex="1">
          <mxGeometry x="392.5" y="-90" width="77.5" height="85" as="geometry" />
        </mxCell>
        <mxCell id="0P6CS62Diz9UizNEsCj9-21" style="edgeStyle=orthogonalEdgeStyle;rounded=0;orthogonalLoop=1;jettySize=auto;html=1;exitX=1;exitY=0.5;exitDx=0;exitDy=0;entryX=0.5;entryY=0;entryDx=0;entryDy=0;" parent="1" source="0P6CS62Diz9UizNEsCj9-19" target="0P6CS62Diz9UizNEsCj9-2" edge="1">
          <mxGeometry relative="1" as="geometry">
            <Array as="points">
              <mxPoint x="720" y="-47" />
              <mxPoint x="720" y="-340" />
              <mxPoint x="8" y="-340" />
            </Array>
          </mxGeometry>
        </mxCell>
        <mxCell id="0P6CS62Diz9UizNEsCj9-19" value="sucess" style="rhombus;whiteSpace=wrap;html=1;" parent="1" vertex="1">
          <mxGeometry x="600" y="-87.5" width="80" height="80" as="geometry" />
        </mxCell>
        <mxCell id="0P6CS62Diz9UizNEsCj9-30" value="" style="edgeStyle=orthogonalEdgeStyle;rounded=0;orthogonalLoop=1;jettySize=auto;html=1;" parent="1" source="0P6CS62Diz9UizNEsCj9-25" target="0P6CS62Diz9UizNEsCj9-29" edge="1">
          <mxGeometry relative="1" as="geometry" />
        </mxCell>
        <mxCell id="0P6CS62Diz9UizNEsCj9-34" value="" style="edgeStyle=orthogonalEdgeStyle;rounded=0;orthogonalLoop=1;jettySize=auto;html=1;" parent="1" source="0P6CS62Diz9UizNEsCj9-25" target="0P6CS62Diz9UizNEsCj9-33" edge="1">
          <mxGeometry relative="1" as="geometry" />
        </mxCell>
        <mxCell id="0P6CS62Diz9UizNEsCj9-25" value="list category" style="whiteSpace=wrap;html=1;" parent="1" vertex="1">
          <mxGeometry x="-60" y="230" width="120" height="60" as="geometry" />
        </mxCell>
        <mxCell id="0P6CS62Diz9UizNEsCj9-27" value="detail category" style="whiteSpace=wrap;html=1;" parent="1" vertex="1">
          <mxGeometry x="120" y="380" width="120" height="60" as="geometry" />
        </mxCell>
        <mxCell id="0P6CS62Diz9UizNEsCj9-31" value="" style="edgeStyle=orthogonalEdgeStyle;rounded=0;orthogonalLoop=1;jettySize=auto;html=1;" parent="1" source="0P6CS62Diz9UizNEsCj9-29" target="0P6CS62Diz9UizNEsCj9-27" edge="1">
          <mxGeometry relative="1" as="geometry" />
        </mxCell>
        <mxCell id="0P6CS62Diz9UizNEsCj9-29" value="select row" style="rhombus;whiteSpace=wrap;html=1;" parent="1" vertex="1">
          <mxGeometry x="-40" y="370" width="80" height="80" as="geometry" />
        </mxCell>
        <mxCell id="0P6CS62Diz9UizNEsCj9-36" value="" style="edgeStyle=orthogonalEdgeStyle;rounded=0;orthogonalLoop=1;jettySize=auto;html=1;" parent="1" source="0P6CS62Diz9UizNEsCj9-33" target="0P6CS62Diz9UizNEsCj9-35" edge="1">
          <mxGeometry relative="1" as="geometry" />
        </mxCell>
        <mxCell id="0P6CS62Diz9UizNEsCj9-33" value="create" style="rhombus;whiteSpace=wrap;html=1;" parent="1" vertex="1">
          <mxGeometry x="250" y="220" width="80" height="80" as="geometry" />
        </mxCell>
        <mxCell id="0P6CS62Diz9UizNEsCj9-38" value="" style="edgeStyle=orthogonalEdgeStyle;rounded=0;orthogonalLoop=1;jettySize=auto;html=1;" parent="1" source="0P6CS62Diz9UizNEsCj9-35" target="0P6CS62Diz9UizNEsCj9-37" edge="1">
          <mxGeometry relative="1" as="geometry" />
        </mxCell>
        <mxCell id="0P6CS62Diz9UizNEsCj9-35" value="Create category" style="whiteSpace=wrap;html=1;" parent="1" vertex="1">
          <mxGeometry x="380" y="230" width="120" height="60" as="geometry" />
        </mxCell>
        <mxCell id="e0vE-16HeLjSwjVlVm8m-12" style="edgeStyle=orthogonalEdgeStyle;rounded=0;orthogonalLoop=1;jettySize=auto;html=1;entryX=0.75;entryY=0;entryDx=0;entryDy=0;" edge="1" parent="1" source="0P6CS62Diz9UizNEsCj9-37" target="0P6CS62Diz9UizNEsCj9-25">
          <mxGeometry relative="1" as="geometry">
            <Array as="points">
              <mxPoint x="594" y="200" />
              <mxPoint x="30" y="200" />
            </Array>
          </mxGeometry>
        </mxCell>
        <mxCell id="0P6CS62Diz9UizNEsCj9-37" value="sucess" style="rhombus;whiteSpace=wrap;html=1;" parent="1" vertex="1">
          <mxGeometry x="553.5" y="220" width="80" height="80" as="geometry" />
        </mxCell>
        <mxCell id="e0vE-16HeLjSwjVlVm8m-7" value="" style="edgeStyle=orthogonalEdgeStyle;rounded=0;orthogonalLoop=1;jettySize=auto;html=1;" edge="1" parent="1" source="e0vE-16HeLjSwjVlVm8m-2" target="e0vE-16HeLjSwjVlVm8m-6">
          <mxGeometry relative="1" as="geometry" />
        </mxCell>
        <mxCell id="e0vE-16HeLjSwjVlVm8m-2" value="sucess" style="rhombus;whiteSpace=wrap;html=1;" vertex="1" parent="1">
          <mxGeometry x="-190" y="-15" width="80" height="80" as="geometry" />
        </mxCell>
        <mxCell id="e0vE-16HeLjSwjVlVm8m-8" style="edgeStyle=orthogonalEdgeStyle;rounded=0;orthogonalLoop=1;jettySize=auto;html=1;entryX=0.5;entryY=1;entryDx=0;entryDy=0;" edge="1" parent="1">
          <mxGeometry relative="1" as="geometry">
            <mxPoint x="9" y="-5" as="sourcePoint" />
            <mxPoint x="6.5" y="-165" as="targetPoint" />
            <Array as="points">
              <mxPoint x="7" y="-5" />
              <mxPoint x="7" y="-84" />
            </Array>
          </mxGeometry>
        </mxCell>
        <mxCell id="e0vE-16HeLjSwjVlVm8m-10" style="edgeStyle=orthogonalEdgeStyle;rounded=0;orthogonalLoop=1;jettySize=auto;html=1;exitX=0.5;exitY=1;exitDx=0;exitDy=0;" edge="1" parent="1" source="e0vE-16HeLjSwjVlVm8m-6" target="0P6CS62Diz9UizNEsCj9-25">
          <mxGeometry relative="1" as="geometry">
            <Array as="points">
              <mxPoint x="10" y="190" />
              <mxPoint x="10" y="190" />
            </Array>
          </mxGeometry>
        </mxCell>
        <mxCell id="e0vE-16HeLjSwjVlVm8m-6" value="nav link" style="whiteSpace=wrap;html=1;" vertex="1" parent="1">
          <mxGeometry x="-50" y="-5" width="120" height="60" as="geometry" />
        </mxCell>
        <mxCell id="e0vE-16HeLjSwjVlVm8m-9" style="edgeStyle=orthogonalEdgeStyle;rounded=0;orthogonalLoop=1;jettySize=auto;html=1;exitX=1;exitY=0.5;exitDx=0;exitDy=0;" edge="1" parent="1" target="0P6CS62Diz9UizNEsCj9-4">
          <mxGeometry relative="1" as="geometry">
            <mxPoint x="65" y="-182.5" as="sourcePoint" />
            <mxPoint x="240" y="-140" as="targetPoint" />
            <Array as="points">
              <mxPoint x="65" y="-190" />
            </Array>
          </mxGeometry>
        </mxCell>
      </root>
    </mxGraphModel>
  </diagram>
</mxfile>
